<svg width="689" height="418" viewBox="0 0 689 418" fill="none" xmlns="http://www.w3.org/2000/svg">
<line x1="-3.29273e-08" y1="124.5" x2="689" y2="124.5" stroke="url(#paint0_linear_51_2)" stroke-opacity="0.4"/>
<line x1="-3.29273e-08" y1="224.5" x2="689" y2="224.5" stroke="url(#paint1_linear_51_2)" stroke-opacity="0.4"/>
<line x1="-3.29273e-08" y1="324.5" x2="689" y2="324.5" stroke="url(#paint2_linear_51_2)" stroke-opacity="0.4"/>
<line x1="114.5" y1="418" x2="114.5" y2="5" stroke="url(#paint3_linear_51_2)" stroke-opacity="0.4"/>
<line x1="207.5" y1="418" x2="207.5" y2="5" stroke="url(#paint4_linear_51_2)" stroke-opacity="0.4"/>
<line x1="486.5" y1="413" x2="486.5" y2="2.49042e-08" stroke="url(#paint5_linear_51_2)" stroke-opacity="0.4"/>
<line x1="300.5" y1="418" x2="300.5" y2="5" stroke="url(#paint6_linear_51_2)" stroke-opacity="0.4"/>
<line x1="579.5" y1="413" x2="579.5" y2="2.49721e-08" stroke="url(#paint7_linear_51_2)" stroke-opacity="0.4"/>
<line x1="393.5" y1="418" x2="393.5" y2="5" stroke="url(#paint8_linear_51_2)" stroke-opacity="0.4"/>
<defs>
<linearGradient id="paint0_linear_51_2" x1="-89.8832" y1="125" x2="766.669" y2="125" gradientUnits="userSpaceOnUse">
<stop/>
<stop offset="0.505208" stop-color="#A1A1AA"/>
<stop offset="1"/>
</linearGradient>
<linearGradient id="paint1_linear_51_2" x1="-89.8832" y1="225" x2="766.669" y2="225" gradientUnits="userSpaceOnUse">
<stop/>
<stop offset="0.505208" stop-color="#A1A1AA"/>
<stop offset="1"/>
</linearGradient>
<linearGradient id="paint2_linear_51_2" x1="-89.8832" y1="325" x2="766.669" y2="325" gradientUnits="userSpaceOnUse">
<stop/>
<stop offset="0.505208" stop-color="#A1A1AA"/>
<stop offset="1"/>
</linearGradient>
<linearGradient id="paint3_linear_51_2" x1="115" y1="471.878" x2="115" y2="-41.5564" gradientUnits="userSpaceOnUse">
<stop/>
<stop offset="0.505208" stop-color="#A1A1AA"/>
<stop offset="1"/>
</linearGradient>
<linearGradient id="paint4_linear_51_2" x1="208" y1="471.878" x2="208" y2="-41.5564" gradientUnits="userSpaceOnUse">
<stop/>
<stop offset="0.505208" stop-color="#A1A1AA"/>
<stop offset="1"/>
</linearGradient>
<linearGradient id="paint5_linear_51_2" x1="487" y1="466.878" x2="487" y2="-46.5564" gradientUnits="userSpaceOnUse">
<stop/>
<stop offset="0.505208" stop-color="#A1A1AA"/>
<stop offset="1"/>
</linearGradient>
<linearGradient id="paint6_linear_51_2" x1="301" y1="471.878" x2="301" y2="-41.5564" gradientUnits="userSpaceOnUse">
<stop/>
<stop offset="0.505208" stop-color="#A1A1AA"/>
<stop offset="1"/>
</linearGradient>
<linearGradient id="paint7_linear_51_2" x1="580" y1="466.878" x2="580" y2="-46.5564" gradientUnits="userSpaceOnUse">
<stop/>
<stop offset="0.505208" stop-color="#A1A1AA"/>
<stop offset="1"/>
</linearGradient>
<linearGradient id="paint8_linear_51_2" x1="394" y1="471.878" x2="394" y2="-41.5564" gradientUnits="userSpaceOnUse">
<stop/>
<stop offset="0.505208" stop-color="#A1A1AA"/>
<stop offset="1"/>
</linearGradient>
</defs>
</svg>
